Coordinates
version=1
nRows=13
nColumns=40
inDegrees=yes

Units are S.I. units (second, meters, Newtons, ...)
If the header above contains a line with 'inDegrees', this indicates whether rotational values are in degrees (yes) or radians (no).

endheader
time	pelvis_tilt	pelvis_list	pelvis_rotation	pelvis_tx	pelvis_ty	pelvis_tz	hip_flexion_r	hip_adduction_r	hip_rotation_r	knee_angle_r	knee_angle_r_beta	ankle_angle_r	subtalar_angle_r	mtp_angle_r	hip_flexion_l	hip_adduction_l	hip_rotation_l	knee_angle_l	knee_angle_l_beta	ankle_angle_l	subtalar_angle_l	mtp_angle_l	lumbar_extension	lumbar_bending	lumbar_rotation	arm_flex_r	arm_add_r	arm_rot_r	elbow_flex_r	pro_sup_r	wrist_flex_r	wrist_dev_r	arm_flex_l	arm_add_l	arm_rot_l	elbow_flex_l	pro_sup_l	wrist_flex_l	wrist_dev_l
      1.30000000	      4.21548572	     -5.97205687	      0.85958375	     -0.30881970	      1.05588111	     -1.06806220	     39.24905633	      0.41380356	     -2.83892764	      4.48522439	      0.07828193	      1.03637550	      0.00000000	      0.00000000	      5.91991861	     -3.29030010	     -6.01246805	     21.70205287	      0.37877228	     -3.54073715	      0.00000000	      0.00000000	     -7.21809019	      0.83201496	      5.01949571	     89.82042181	    -31.63854848	     39.06343440	     33.40612485	     84.81441000	      0.00000000	      0.00000000	     89.82069388	    -29.53827153	     36.27562485	     36.86604043	     86.51988160	      0.00000000	      0.00000000
      1.30500000	      4.22081170	     -6.03304724	      0.91671890	     -0.30873801	      1.05587034	     -1.06805520	     39.26187998	      0.47429812	     -2.88945664	      4.47860941	      0.07816648	      0.93936450	      0.00000000	      0.00000000	      5.95446659	     -3.35730989	     -5.97037654	     21.79268468	      0.38035410	     -3.47884186	      0.00000000	      0.00000000	     -7.21713447	      0.89735235	      4.97712173	     89.82183036	    -31.69807794	     39.06063844	     33.42504305	     84.62144670	      0.00000000	      0.00000000	     89.82250271	    -29.57111042	     36.25458282	     36.96906822	     86.39579603	      0.00000000	      0.00000000
      1.31000000	      4.19711164	     -6.00664959	      0.93811425	     -0.30866772	      1.05582244	     -1.06805302	     39.33096104	      0.47060756	     -2.82342007	      4.55113129	      0.07943223	      0.97150071	      0.00000000	      0.00000000	      5.99259210	     -3.31005609	     -5.88778338	     21.79984851	      0.38047913	     -3.52974514	      0.00000000	      0.00000000	     -7.17641171	      0.85968426	      4.94713371	     89.82374095	    -31.67904558	     38.95591344	     33.26574695	     84.76285051	      0.00000000	      0.00000000	     89.82334709	    -29.51659595	     35.98783947	     36.83900036	     86.49318370	      0.00000000	      0.00000000
      1.31500000	      4.18966158	     -6.07000747	      0.99999015	     -0.30857620	      1.05580952	     -1.06806678	     39.36678207	      0.53528394	     -2.85215044	      4.59005714	      0.08011161	      1.00284508	      0.00000000	      0.00000000	      6.03707173	     -3.36988484	     -5.79067731	     21.87660459	      0.38181878	     -3.54111589	      0.00000000	      0.00000000	     -7.16788333	      0.93005529	      4.89221304	     89.82620876	    -31.75014409	     39.14015575	     33.31734680	     84.20932157	      0.00000000	      0.00000000	     89.82570206	    -29.61769225	     36.08327509	     36.95513839	     86.26396204	      0.00000000	      0.00000000
      1.32000000	      4.15460852	     -6.10985291	      1.01746523	     -0.30856115	      1.05575240	     -1.06802335	     39.40446184	      0.60589439	     -2.87994925	      4.56482148	      0.07967116	      0.90748452	      0.00000000	      0.00000000	      6.10165287	     -3.42424599	     -5.83897121	     21.91700578	      0.38252391	     -3.48887550	      0.00000000	      0.00000000	     -7.12407221	      0.97082834	      4.85419485	     89.82769897	    -31.71698184	     39.07580471	     33.22707473	     84.23635301	      0.00000000	      0.00000000	     89.82661805	    -29.60635395	     35.88020359	     36.92518110	     86.26008391	      0.00000000	      0.00000000
      1.32500000	      4.18190126	     -6.12581713	      1.04305542	     -0.30838864	      1.05578300	     -1.06800901	     39.38725220	      0.64754735	     -2.82823100	      4.61979464	      0.08063063	      0.98096719	      0.00000000	      0.00000000	      6.07245410	     -3.43647563	     -5.81441450	     21.92875037	      0.38272889	     -3.50109510	      0.00000000	      0.00000000	     -7.14138672	      0.99293981	      4.80929317	     89.82828061	    -31.70282641	     39.01279137	     33.19899259	     84.45601400	      0.00000000	      0.00000000	     89.82783371	    -29.66801787	     35.72934862	     36.93027652	     86.39581299	      0.00000000	      0.00000000
      1.33000000	      4.15709653	     -6.11684512	      1.05471659	     -0.30840375	      1.05571489	     -1.06801008	     39.44181371	      0.66528238	     -2.73929768	      4.67204427	      0.08154256	      0.98279572	      0.00000000	      0.00000000	      6.12410871	     -3.41183101	     -5.74100315	     21.96868983	      0.38342597	     -3.48304097	      0.00000000	      0.00000000	     -7.10722851	      0.98598684	      4.80365399	     89.83106479	    -31.64437560	     38.82067217	     33.00499796	     84.67703601	      0.00000000	      0.00000000	     89.82783806	    -29.57019277	     35.35262811	     36.77606745	     86.44996609	      0.00000000	      0.00000000
      1.33500000	      4.15444940	     -6.14412525	      1.04395986	     -0.30822553	      1.05564811	     -1.06791401	     39.47284130	      0.74213047	     -2.78158096	      4.74240490	      0.08277058	      1.06694715	      0.00000000	      0.00000000	      6.12028426	     -3.44831051	     -5.78665923	     21.97944492	      0.38361368	     -3.43843817	      0.00000000	      0.00000000	     -7.07876534	      1.01460979	      4.78308488	     89.83262222	    -31.61863474	     38.93071110	     32.92731156	     84.68929218	      0.00000000	      0.00000000	     89.82935672	    -29.62443765	     35.25606044	     36.75489204	     86.44090725	      0.00000000	      0.00000000
      1.34000000	      4.14144233	     -6.14113420	      1.05273109	     -0.30823728	      1.05555944	     -1.06789674	     39.53689203	      0.76468586	     -2.84131539	      4.84718089	      0.08459927	      1.03433771	      0.00000000	      0.00000000	      6.15321923	     -3.43612295	     -5.73060976	     22.01003726	      0.38414762	     -3.49371312	      0.00000000	      0.00000000	     -7.01306070	      1.02758110	      4.70904519	     89.83391470	    -31.45440122	     38.90834861	     32.68371473	     84.70408309	      0.00000000	      0.00000000	     89.83040326	    -29.69528078	     35.25525877	     36.68048252	     86.39194692	      0.00000000	      0.00000000
      1.34500000	      4.15283001	     -6.17650894	      1.07403477	     -0.30821843	      1.05554399	     -1.06786583	     39.52875845	      0.82185927	     -2.84028982	      4.87077972	      0.08501114	      0.99481056	      0.00000000	      0.00000000	      6.15248083	     -3.47248693	     -5.70639933	     22.03327483	      0.38455319	     -3.39609468	      0.00000000	      0.00000000	     -7.02530106	      1.06891032	      4.70124112	     89.83547875	    -31.51400421	     39.03407589	     32.73355198	     84.46135205	      0.00000000	      0.00000000	     89.83131280	    -29.67560949	     35.05199933	     36.64349355	     86.47668056	      0.00000000	      0.00000000
      1.35000000	      4.14918996	     -6.20043673	      1.08449649	     -0.30815989	      1.05549935	     -1.06782686	     39.54051423	      0.87482617	     -2.83318069	      4.90610668	      0.08562771	      0.97608419	      0.00000000	      0.00000000	      6.17251088	     -3.49798604	     -5.70365232	     22.07726417	      0.38532095	     -3.37259079	      0.00000000	      0.00000000	     -7.00998011	      1.09017756	      4.69020342	     89.83660285	    -31.50316771	     39.00577721	     32.64154264	     84.57831507	      0.00000000	      0.00000000	     89.83229500	    -29.65266935	     34.86615941	     36.59947090	     86.42775718	      0.00000000	      0.00000000
      1.35500000	      4.12897436	     -6.21729607	      1.09369119	     -0.30814650	      1.05543103	     -1.06779216	     39.56723620	      0.91982289	     -2.81342611	      4.94923032	      0.08638036	      0.99885761	      0.00000000	      0.00000000	      6.21477978	     -3.51062155	     -5.64251945	     22.11290979	      0.38594308	     -3.35700236	      0.00000000	      0.00000000	     -6.98471073	      1.12023733	      4.64766542	     89.83800855	    -31.46015484	     38.97726084	     32.62720249	     84.57949054	      0.00000000	      0.00000000	     89.83371839	    -29.71232273	     34.72598654	     36.57803950	     86.42811395	      0.00000000	      0.00000000
      1.36000000	      4.11134002	     -6.23238691	      1.08502822	     -0.30815570	      1.05536595	     -1.06771638	     39.58126258	      0.97469387	     -2.80405374	      4.95519881	      0.08648453	      1.00574699	      0.00000000	      0.00000000	      6.25837608	     -3.53044397	     -5.65294616	     22.16850084	      0.38691333	     -3.32974052	      0.00000000	      0.00000000	     -6.96271783	      1.14153636	      4.64687623	     89.83962680	    -31.38580907	     38.91725311	     32.48233751	     84.09489911	      0.00000000	      0.00000000	     89.83439388	    -29.70119875	     34.46063387	     36.50769232	     86.54776390	      0.00000000	      0.00000000
